<svg width="39" height="58" viewBox="0 0 39 58" fill="none" xmlns="http://www.w3.org/2000/svg">
<path id="0" d="M38.083 23.971V33.7141C38.083 37.9413 37.632 41.5885 36.7298 44.6557C35.8277 47.6972 34.526 50.1974 32.8249 52.1563C31.1495 54.0895 29.1519 55.52 26.8321 56.4479C24.5123 57.3759 21.9348 57.8398 19.0995 57.8398C16.8313 57.8398 14.7177 57.5563 12.7588 56.9892C10.7999 56.3964 9.03425 55.4814 7.46195 54.2442C5.91544 53.0069 4.57512 51.4475 3.441 49.5659C2.33267 47.6586 1.48208 45.3903 0.889249 42.7612C0.296416 40.1322 0 37.1165 0 33.7141V23.971C0 19.7439 0.451068 16.1225 1.3532 13.1067C2.28112 10.0653 3.58277 7.57794 5.25816 5.64479C6.95934 3.71165 8.96981 2.294 11.2896 1.39187C13.6094 0.463956 16.1869 0 19.0222 0C21.2904 0 23.3911 0.296416 25.3242 0.889248C27.2832 1.45631 29.0488 2.34555 30.6211 3.55699C32.1934 4.76843 33.5337 6.32784 34.642 8.23521C35.7504 10.1168 36.601 12.3722 37.1938 15.0012C37.7866 17.6045 38.083 20.5945 38.083 23.971ZM26.9094 35.1833V22.4632C26.9094 20.4269 26.7934 18.6484 26.5615 17.1277C26.3553 15.607 26.0331 14.3182 25.5949 13.2614C25.1567 12.1788 24.6154 11.3025 23.971 10.6323C23.3267 9.96216 22.5921 9.47243 21.7673 9.16313C20.9424 8.85382 20.0274 8.69917 19.0222 8.69917C17.7592 8.69917 16.638 8.94403 15.6585 9.43377C14.7048 9.9235 13.8929 10.7096 13.2227 11.7922C12.5526 12.849 12.0371 14.2666 11.6762 16.0451C11.3411 17.7979 11.1736 19.9372 11.1736 22.4632V35.1833C11.1736 37.2196 11.2767 39.0109 11.4829 40.5575C11.7149 42.104 12.05 43.4314 12.4881 44.5397C12.9521 45.6223 13.4934 46.5116 14.112 47.2075C14.7564 47.8776 15.491 48.3674 16.3158 48.6767C17.1664 48.986 18.0943 49.1406 19.0995 49.1406C20.3367 49.1406 21.4322 48.8958 22.3859 48.406C23.3653 47.8905 24.1901 47.0915 24.8603 46.0089C25.5562 44.9006 26.0717 43.4572 26.4068 41.6787C26.7419 39.9002 26.9094 37.7351 26.9094 35.1833Z" fill="#3153CA"/>
</svg>
