<svg width="39" height="58" viewBox="0 0 39 58" fill="none" xmlns="http://www.w3.org/2000/svg">
<path id="6" d="M28.8926 0.0966797H30.5165V8.98916H29.8592C26.9208 8.98916 24.3046 9.42734 22.0106 10.3037C19.7166 11.1801 17.7706 12.4302 16.1725 14.054C14.6002 15.6521 13.3888 17.5852 12.5382 19.8535C11.7134 22.1217 11.301 24.6606 11.301 27.4701V36.8265C11.301 38.837 11.4943 40.6155 11.8809 42.162C12.2933 43.6827 12.8732 44.9586 13.6207 45.9896C14.394 46.9949 15.2961 47.7552 16.3271 48.2707C17.3582 48.7605 18.518 49.0053 19.8068 49.0053C21.0182 49.0053 22.1137 48.7476 23.0932 48.2321C24.0984 47.7166 24.949 46.9949 25.6449 46.067C26.3666 45.1133 26.9079 44.0049 27.2688 42.7419C27.6554 41.4532 27.8487 40.0484 27.8487 38.5277C27.8487 37.0069 27.6554 35.6022 27.2688 34.3134C26.9079 33.0246 26.3666 31.9163 25.6449 30.9884C24.9232 30.0347 24.0468 29.3001 23.0158 28.7846C21.9848 28.2691 20.8249 28.0113 19.5362 28.0113C17.7834 28.0113 16.2369 28.4238 14.8966 29.2486C13.5821 30.0476 12.5511 31.0786 11.8036 32.3416C11.0561 33.6046 10.6566 34.932 10.605 36.3239L7.24134 34.1588C7.31867 32.1741 7.73107 30.2925 8.47855 28.514C9.25181 26.7355 10.3086 25.1632 11.6489 23.7971C13.015 22.4052 14.6517 21.3227 16.5591 20.5494C18.4665 19.7504 20.6187 19.3508 23.0158 19.3508C25.6449 19.3508 27.9518 19.8535 29.9365 20.8587C31.947 21.8639 33.6224 23.2429 34.9627 24.9956C36.303 26.7484 37.3082 28.7717 37.9784 31.0657C38.6486 33.3597 38.9836 35.8084 38.9836 38.4117C38.9836 41.1439 38.5326 43.6827 37.6304 46.0283C36.7541 48.3738 35.4782 50.423 33.8028 52.1757C32.1532 53.9284 30.1685 55.2945 27.8487 56.274C25.5289 57.2534 22.9256 57.7432 20.0388 57.7432C17.0488 57.7432 14.3296 57.2019 11.8809 56.1193C9.45802 55.011 7.37022 53.4645 5.61749 51.4798C3.86477 49.4951 2.51157 47.1366 1.55788 44.4044C0.629971 41.6723 0.166016 38.6823 0.166016 35.4346V31.1044C0.166016 26.5679 0.823286 22.4181 2.13783 18.6549C3.47814 14.8659 5.3984 11.5925 7.89861 8.83451C10.3988 6.05078 13.4145 3.89854 16.9457 2.3778C20.477 0.857052 24.4593 0.0966797 28.8926 0.0966797Z" fill="#3153CA"/>
</svg>
