<svg width="30" height="30" viewBox="0 0 30 30" fill="none" xmlns="http://www.w3.org/2000/svg">
<g id="ic:round-menu-book">
<path id="Vector" d="M21.875 5.625C19.4375 5.625 16.8125 6.125 15 7.5C13.1875 6.125 10.5625 5.625 8.125 5.625C6.3125 5.625 4.3875 5.9 2.775 6.6125C1.8625 7.025 1.25 7.9125 1.25 8.925V23.025C1.25 24.65 2.775 25.85 4.35 25.45C5.575 25.1375 6.875 25 8.125 25C10.075 25 12.15 25.325 13.825 26.15C14.575 26.525 15.425 26.525 16.1625 26.15C17.8375 25.3125 19.9125 25 21.8625 25C23.1125 25 24.4125 25.1375 25.6375 25.45C27.2125 25.8625 28.7375 24.6625 28.7375 23.025V8.925C28.7375 7.9125 28.125 7.025 27.2125 6.6125C25.6125 5.9 23.6875 5.625 21.875 5.625ZM26.25 21.5375C26.25 22.325 25.525 22.9 24.75 22.7625C23.8125 22.5875 22.8375 22.5125 21.875 22.5125C19.75 22.5125 16.6875 23.325 15 24.3875V10C16.6875 8.9375 19.75 8.125 21.875 8.125C23.025 8.125 24.1625 8.2375 25.25 8.475C25.825 8.6 26.25 9.1125 26.25 9.7V21.5375Z" fill="white"/>
<path id="Vector_2" d="M2.18432 13.7626C1.78432 13.7626 1.42182 13.5126 1.29682 13.1126C1.13432 12.6251 1.40932 12.0876 1.89682 11.9376C3.82182 11.3126 6.30932 11.1126 8.59682 11.3751C9.10932 11.4376 9.48432 11.9001 9.42182 12.4126C9.35932 12.9251 8.89682 13.3001 8.38432 13.2376C6.35932 13.0001 4.14682 13.1876 2.47182 13.7251C2.37182 13.7376 2.27182 13.7626 2.18432 13.7626ZM2.18432 17.0876C1.78432 17.0876 1.42182 16.8376 1.29682 16.4376C1.13432 15.9501 1.40932 15.4126 1.89682 15.2626C3.80932 14.6376 6.30932 14.4376 8.59682 14.7001C9.10932 14.7626 9.48432 15.2251 9.42182 15.7376C9.35932 16.2501 8.89682 16.6251 8.38432 16.5626C6.35932 16.3251 4.14682 16.5126 2.47182 17.0501C2.37783 17.074 2.28131 17.0866 2.18432 17.0876ZM2.18432 20.4126C1.78432 20.4126 1.42182 20.1626 1.29682 19.7626C1.13432 19.2751 1.40932 18.7376 1.89682 18.5876C3.80932 17.9626 6.30932 17.7626 8.59682 18.0251C9.10932 18.0876 9.48432 18.5501 9.42182 19.0626C9.35932 19.5751 8.89682 19.9376 8.38432 19.8876C6.35932 19.6501 4.14682 19.8376 2.47182 20.3751C2.37783 20.399 2.28131 20.4116 2.18432 20.4126Z" fill="white"/>
</g>
</svg>
