<svg width="25" height="24" viewBox="0 0 25 24" fill="none" xmlns="http://www.w3.org/2000/svg">
<g id="ic:round-call">
<path id="Vector" d="M19.73 15.26L17.19 14.97C16.8914 14.9349 16.5886 14.968 16.3046 15.0667C16.0206 15.1654 15.7626 15.3273 15.55 15.54L13.71 17.38C10.8712 15.9362 8.56382 13.6288 7.12004 10.79L8.97004 8.94001C9.40004 8.51001 9.61004 7.91001 9.54004 7.30001L9.25004 4.78001C9.19335 4.29219 8.95923 3.84225 8.59228 3.51586C8.22532 3.18947 7.75115 3.00943 7.26004 3.01001H5.53004C4.40004 3.01001 3.46004 3.95001 3.53004 5.08001C4.06004 13.62 10.89 20.44 19.42 20.97C20.55 21.04 21.49 20.1 21.49 18.97V17.24C21.5 16.23 20.74 15.38 19.73 15.26Z" fill="#3153CA"/>
</g>
</svg>
