<svg width="16" height="16" viewBox="0 0 16 16" fill="none" xmlns="http://www.w3.org/2000/svg">
<g id="tabler:edit">
<g id="Group">
<path id="Vector" d="M4.66699 4.66675H4.00033C3.6467 4.66675 3.30756 4.80722 3.05752 5.05727C2.80747 5.30732 2.66699 5.64646 2.66699 6.00008V12.0001C2.66699 12.3537 2.80747 12.6928 3.05752 12.9429C3.30756 13.1929 3.6467 13.3334 4.00033 13.3334H10.0003C10.3539 13.3334 10.6931 13.1929 10.9431 12.9429C11.1932 12.6928 11.3337 12.3537 11.3337 12.0001V11.3334" stroke="#3153CA" stroke-width="1.33333" stroke-linecap="round" stroke-linejoin="round"/>
<path id="Vector_2" d="M10.6667 3.3334L12.6667 5.3334M13.59 4.39007C13.8526 4.12751 14.0001 3.77139 14.0001 3.40007C14.0001 3.02875 13.8526 2.67264 13.59 2.41007C13.3274 2.14751 12.9713 2 12.6 2C12.2287 2 11.8726 2.14751 11.61 2.41007L6 8.00007V10.0001H8L13.59 4.39007Z" stroke="#3153CA" stroke-width="1.33333" stroke-linecap="round" stroke-linejoin="round"/>
</g>
</g>
</svg>
