<svg width="25" height="24" viewBox="0 0 25 24" fill="none" xmlns="http://www.w3.org/2000/svg">
<g id="Frame 716">
<circle id="Ellipse 249" cx="12.5" cy="12.0664" r="8" stroke="#3153CA" stroke-width="2"/>
<path id="!" d="M12.5649 7.15716C12.981 7.15716 13.3184 7.49447 13.3184 7.91057C13.3184 8.32666 12.981 8.66398 12.565 8.66398L12.4354 8.66398C12.0193 8.66398 11.682 8.32667 11.682 7.91057C11.682 7.49447 12.0193 7.15716 12.4354 7.15716L12.5649 7.15716ZM12.5002 9.61171C12.952 9.61171 13.3184 9.97802 13.3184 10.4299L13.3184 16.1572C13.3184 16.609 12.952 16.9753 12.5002 16.9753C12.0483 16.9753 11.682 16.609 11.682 16.1572L11.682 10.4299C11.682 9.97802 12.0483 9.61171 12.5002 9.61171Z" fill="#3153CA"/>
</g>
</svg>
