<svg width="36" height="36" viewBox="0 0 36 36" fill="none" xmlns="http://www.w3.org/2000/svg">
<g id="Frame 701">
<rect id="Rectangle 855" x="0.28125" y="0.28125" width="35.4375" height="35.4375" rx="6.46875" fill="white" stroke="#CACACA" stroke-width="0.5625"/>
<path id="!" d="M17.9407 28.5304C17.0415 28.5304 16.3125 27.8014 16.3125 26.9022C16.3125 26.003 17.0415 25.274 17.9407 25.274H18.2354C19.1346 25.274 19.8635 26.003 19.8635 26.9022C19.8635 27.8014 19.1346 28.5304 18.2354 28.5304H17.9407ZM18.088 23.2259C17.1074 23.2259 16.3125 22.431 16.3125 21.4504V9.08802C16.3125 8.10743 17.1074 7.3125 18.088 7.3125C19.0686 7.3125 19.8635 8.10743 19.8635 9.08802V15.2692V21.4504C19.8635 22.431 19.0686 23.2259 18.088 23.2259Z" fill="#FCA5A5"/>
</g>
</svg>
