<svg width="36" height="36" viewBox="0 0 36 36" fill="none" xmlns="http://www.w3.org/2000/svg">
<g id="mdi:cards-heart-outline">
<path id="Vector" d="M18.15 27.825C18.066 27.909 17.9309 27.9122 17.843 27.8323L17.835 27.825C10.71 21.36 6 17.085 6 12.75C6 9.75 8.25 7.5 11.25 7.5C13.0725 7.5 14.8577 8.43371 15.9204 9.82967C16.4299 10.4989 17.1589 11.04 18 11.04C18.8411 11.04 19.5701 10.4989 20.0796 9.82967C21.1423 8.43371 22.9275 7.5 24.75 7.5C27.75 7.5 30 9.75 30 12.75C30 17.085 25.29 21.36 18.15 27.825ZM24.75 4.5C22.14 4.5 19.635 5.715 18 7.62C16.365 5.715 13.86 4.5 11.25 4.5C6.63 4.5 3 8.115 3 12.75C3 18.405 8.1 23.04 15.825 30.045C17.0578 31.1673 18.9422 31.1673 20.175 30.045C27.9 23.04 33 18.405 33 12.75C33 8.115 29.37 4.5 24.75 4.5Z" fill="#3153CA"/>
</g>
</svg>
