<svg width="81" height="80" viewBox="0 0 81 80" fill="none" xmlns="http://www.w3.org/2000/svg">
<g id="mdi:cards-heart-outline" opacity="0.5">
<path id="Vector" d="M40.8333 61.8333C40.6467 62.0199 40.3464 62.0271 40.1511 61.8496L40.1333 61.8333C24.3 47.4667 13.8333 37.9667 13.8333 28.3333C13.8333 21.6667 18.8333 16.6667 25.5 16.6667C29.55 16.6667 33.5171 18.7416 35.8787 21.8437C37.0109 23.331 38.6308 24.5333 40.5 24.5333C42.3692 24.5333 43.989 23.331 45.1212 21.8437C47.4828 18.7416 51.4499 16.6667 55.5 16.6667C62.1666 16.6667 67.1666 21.6667 67.1666 28.3333C67.1666 37.9667 56.7 47.4667 40.8333 61.8333ZM55.5 10C49.7 10 44.1333 12.7 40.5 16.9333C36.8666 12.7 31.3 10 25.5 10C15.2333 10 7.16663 18.0333 7.16663 28.3333C7.16663 40.9 18.5 51.2 35.6666 66.7667C38.4063 69.2607 42.5937 69.2607 45.3333 66.7667C62.5 51.2 73.8333 40.9 73.8333 28.3333C73.8333 18.0333 65.7666 10 55.5 10Z" fill="#3153CA"/>
</g>
</svg>
