<svg width="24" height="25" viewBox="0 0 24 25" fill="none" xmlns="http://www.w3.org/2000/svg">
<g id="fluent:home-12-regular">
<path id="Rectangle 867" d="M3 11C3 10.6852 3.14819 10.3889 3.4 10.2L11.4 4.2C11.7556 3.93333 12.2444 3.93333 12.6 4.2L20.6 10.2C20.8518 10.3889 21 10.6852 21 11V21C21 21.5523 20.5523 22 20 22H15.5C14.9477 22 14.5 21.5523 14.5 21V15.5C14.5 14.3954 13.6046 13.5 12.5 13.5H11.5C10.3954 13.5 9.5 14.3954 9.5 15.5V21C9.5 21.5523 9.05229 22 8.5 22H4C3.44772 22 3 21.5523 3 21V11Z" fill="#3153CA" stroke="#3153CA" stroke-width="2"/>
</g>
</svg>
