<svg width="18" height="18" viewBox="0 0 18 18" fill="none" xmlns="http://www.w3.org/2000/svg">
<g id="icon">
<path id="Vector" d="M6.20625 8.2501C5.91875 8.2501 5.7 8.1221 5.55 7.8661C5.4 7.6096 5.40625 7.35635 5.56875 7.10635L8.3625 2.5501C8.5125 2.3126 8.725 2.19385 9 2.19385C9.275 2.19385 9.4875 2.3126 9.6375 2.5501L12.4313 7.10635C12.5938 7.35635 12.6 7.6096 12.45 7.8661C12.3 8.1221 12.0813 8.2501 11.7937 8.2501H6.20625ZM13.125 16.5001C12.1875 16.5001 11.3905 16.1721 10.734 15.5161C10.078 14.8596 9.75 14.0626 9.75 13.1251C9.75 12.1876 10.078 11.3906 10.734 10.7341C11.3905 10.0781 12.1875 9.7501 13.125 9.7501C14.0625 9.7501 14.8595 10.0781 15.516 10.7341C16.172 11.3906 16.5 12.1876 16.5 13.1251C16.5 14.0626 16.172 14.8596 15.516 15.5161C14.8595 16.1721 14.0625 16.5001 13.125 16.5001ZM3 16.1251C2.7875 16.1251 2.6095 16.0531 2.466 15.9091C2.322 15.7656 2.25 15.5876 2.25 15.3751V10.8751C2.25 10.6626 2.322 10.4843 2.466 10.3403C2.6095 10.1968 2.7875 10.1251 3 10.1251H7.5C7.7125 10.1251 7.89075 10.1968 8.03475 10.3403C8.17825 10.4843 8.25 10.6626 8.25 10.8751V15.3751C8.25 15.5876 8.17825 15.7656 8.03475 15.9091C7.89075 16.0531 7.7125 16.1251 7.5 16.1251H3ZM13.125 15.0001C13.65 15.0001 14.0937 14.8188 14.4562 14.4563C14.8187 14.0938 15 13.6501 15 13.1251C15 12.6001 14.8187 12.1563 14.4562 11.7938C14.0937 11.4313 13.65 11.2501 13.125 11.2501C12.6 11.2501 12.1562 11.4313 11.7937 11.7938C11.4312 12.1563 11.25 12.6001 11.25 13.1251C11.25 13.6501 11.4312 14.0938 11.7937 14.4563C12.1562 14.8188 12.6 15.0001 13.125 15.0001ZM3.75 14.6251H6.75V11.6251H3.75V14.6251ZM7.5375 6.7501H10.4625L9 4.3876L7.5375 6.7501Z" fill="white"/>
</g>
</svg>
