<svg width="10" height="10" viewBox="0 0 10 10" fill="none" xmlns="http://www.w3.org/2000/svg">
<g id="ri:instagram-fill" clip-path="url(#clip0_1_939)">
<path id="Vector" d="M4.99967 0.833496C6.13176 0.833496 6.27301 0.837663 6.71717 0.858496C7.16092 0.879329 7.46301 0.948913 7.72884 1.05225C8.00384 1.15808 8.23551 1.30141 8.46717 1.53266C8.67905 1.74095 8.84299 1.99291 8.94759 2.271C9.05051 2.53641 9.12051 2.83891 9.14134 3.28266C9.16092 3.72683 9.16634 3.86808 9.16634 5.00016C9.16634 6.13225 9.16217 6.2735 9.14134 6.71766C9.12051 7.16141 9.05051 7.46349 8.94759 7.72933C8.84329 8.00757 8.67931 8.25959 8.46717 8.46766C8.25882 8.67946 8.00689 8.84339 7.72884 8.94808C7.46342 9.05099 7.16092 9.12099 6.71717 9.14183C6.27301 9.16141 6.13176 9.16683 4.99967 9.16683C3.86759 9.16683 3.72634 9.16266 3.28217 9.14183C2.83842 9.12099 2.53634 9.05099 2.27051 8.94808C1.99231 8.84369 1.74031 8.67972 1.53217 8.46766C1.32026 8.25941 1.15631 8.00744 1.05176 7.72933C0.948425 7.46391 0.878841 7.16141 0.858008 6.71766C0.838424 6.2735 0.833008 6.13225 0.833008 5.00016C0.833008 3.86808 0.837174 3.72683 0.858008 3.28266C0.878841 2.8385 0.948425 2.53683 1.05176 2.271C1.15602 1.99274 1.32001 1.74071 1.53217 1.53266C1.74037 1.32068 1.99235 1.15672 2.27051 1.05225C2.53634 0.948913 2.83801 0.879329 3.28217 0.858496C3.72634 0.838913 3.86759 0.833496 4.99967 0.833496ZM4.99967 2.91683C4.44714 2.91683 3.91724 3.13632 3.52653 3.52702C3.13583 3.91772 2.91634 4.44763 2.91634 5.00016C2.91634 5.5527 3.13583 6.0826 3.52653 6.4733C3.91724 6.864 4.44714 7.0835 4.99967 7.0835C5.55221 7.0835 6.08211 6.864 6.47281 6.4733C6.86351 6.0826 7.08301 5.5527 7.08301 5.00016C7.08301 4.44763 6.86351 3.91772 6.47281 3.52702C6.08211 3.13632 5.55221 2.91683 4.99967 2.91683ZM7.70801 2.81266C7.70801 2.67453 7.65313 2.54205 7.55546 2.44438C7.45778 2.3467 7.32531 2.29183 7.18717 2.29183C7.04904 2.29183 6.91656 2.3467 6.81889 2.44438C6.72121 2.54205 6.66634 2.67453 6.66634 2.81266C6.66634 2.9508 6.72121 3.08327 6.81889 3.18095C6.91656 3.27862 7.04904 3.3335 7.18717 3.3335C7.32531 3.3335 7.45778 3.27862 7.55546 3.18095C7.65313 3.08327 7.70801 2.9508 7.70801 2.81266ZM4.99967 3.75016C5.33119 3.75016 5.64914 3.88186 5.88356 4.11628C6.11798 4.3507 6.24967 4.66864 6.24967 5.00016C6.24967 5.33168 6.11798 5.64963 5.88356 5.88405C5.64914 6.11847 5.33119 6.25016 4.99967 6.25016C4.66815 6.25016 4.35021 6.11847 4.11579 5.88405C3.88137 5.64963 3.74967 5.33168 3.74967 5.00016C3.74967 4.66864 3.88137 4.3507 4.11579 4.11628C4.35021 3.88186 4.66815 3.75016 4.99967 3.75016Z" fill="white"/>
</g>
<defs>
<clipPath id="clip0_1_939">
<rect width="10" height="10" fill="white"/>
</clipPath>
</defs>
</svg>
