<svg width="16" height="16" viewBox="0 0 16 16" fill="none" xmlns="http://www.w3.org/2000/svg">
<g id="healthicons:geo-location">
<path id="Vector" fill-rule="evenodd" clip-rule="evenodd" d="M8.19216 13.939L8.1935 13.9383L8.19683 13.936L8.20683 13.9283L8.24616 13.9C8.2795 13.8753 8.32816 13.8393 8.3895 13.792C8.51216 13.698 8.68616 13.5597 8.89383 13.382C9.43897 12.916 9.94871 12.4102 10.4188 11.8687C11.5215 10.5933 12.6668 8.773 12.6668 6.692C12.6668 5.44867 12.1755 4.25533 11.3008 3.37533C10.8685 2.9398 10.3543 2.59406 9.78785 2.35803C9.22139 2.12199 8.61384 2.00031 8.00016 2C7.38651 2.00027 6.77898 2.12189 6.21251 2.35787C5.64605 2.59385 5.13185 2.93952 4.6995 3.375C3.82397 4.25701 3.33291 5.44956 3.3335 6.69233C3.3335 8.773 4.47883 10.5933 5.5815 11.8687C6.05162 12.4102 6.56136 12.916 7.1065 13.382C7.3145 13.5597 7.48816 13.698 7.61083 13.792C7.671 13.8384 7.73178 13.8839 7.79316 13.9287L7.80383 13.936L7.80683 13.9383L7.80816 13.939C7.92316 14.02 8.07716 14.02 8.19216 13.939ZM9.66683 6.66667C9.66683 7.10869 9.49124 7.53262 9.17867 7.84518C8.86611 8.15774 8.44219 8.33333 8.00016 8.33333C7.55814 8.33333 7.13421 8.15774 6.82165 7.84518C6.50909 7.53262 6.3335 7.10869 6.3335 6.66667C6.3335 6.22464 6.50909 5.80072 6.82165 5.48816C7.13421 5.17559 7.55814 5 8.00016 5C8.44219 5 8.86611 5.17559 9.17867 5.48816C9.49124 5.80072 9.66683 6.22464 9.66683 6.66667Z" fill="white"/>
</g>
</svg>
