<svg width="16" height="16" viewBox="0 0 16 16" fill="none" xmlns="http://www.w3.org/2000/svg">
<g id="material-symbols:location-on-outline">
<path id="Vector" d="M7.99984 7.99992C8.3665 7.99992 8.6805 7.86925 8.94184 7.60792C9.20273 7.34703 9.33317 7.03325 9.33317 6.66658C9.33317 6.29992 9.20273 5.98592 8.94184 5.72459C8.6805 5.4637 8.3665 5.33325 7.99984 5.33325C7.63317 5.33325 7.31939 5.4637 7.0585 5.72459C6.79717 5.98592 6.6665 6.29992 6.6665 6.66658C6.6665 7.03325 6.79717 7.34703 7.0585 7.60792C7.31939 7.86925 7.63317 7.99992 7.99984 7.99992ZM7.99984 12.8999C9.35539 11.6555 10.3609 10.5248 11.0165 9.50792C11.6721 8.49147 11.9998 7.58881 11.9998 6.79992C11.9998 5.58881 11.6136 4.59703 10.8412 3.82459C10.0692 3.05259 9.12206 2.66659 7.99984 2.66659C6.87762 2.66659 5.93028 3.05259 5.15784 3.82459C4.38584 4.59703 3.99984 5.58881 3.99984 6.79992C3.99984 7.58881 4.32762 8.49147 4.98317 9.50792C5.63873 10.5248 6.64428 11.6555 7.99984 12.8999ZM7.99984 14.6666C6.21095 13.1444 4.87495 11.7304 3.99184 10.4246C3.10828 9.11925 2.6665 7.91103 2.6665 6.79992C2.6665 5.13325 3.20273 3.80547 4.27517 2.81659C5.34717 1.8277 6.58873 1.33325 7.99984 1.33325C9.41095 1.33325 10.6525 1.8277 11.7245 2.81659C12.7969 3.80547 13.3332 5.13325 13.3332 6.79992C13.3332 7.91103 12.8916 9.11925 12.0085 10.4246C11.1249 11.7304 9.78873 13.1444 7.99984 14.6666Z" fill="#18181B"/>
</g>
</svg>
