<svg width="20" height="20" viewBox="0 0 20 20" fill="none" xmlns="http://www.w3.org/2000/svg">
<g id="material-symbols:mail-rounded">
<path id="Vector" d="M3.33268 16.6663C2.87435 16.6663 2.48185 16.503 2.15518 16.1763C1.82852 15.8497 1.66546 15.4575 1.66602 14.9997V4.99968C1.66602 4.54134 1.82935 4.14884 2.15602 3.82218C2.48268 3.49551 2.87491 3.33245 3.33268 3.33301H16.666C17.1244 3.33301 17.5169 3.49634 17.8435 3.82301C18.1702 4.14968 18.3332 4.5419 18.3327 4.99968V14.9997C18.3327 15.458 18.1694 15.8505 17.8427 16.1772C17.516 16.5038 17.1238 16.6669 16.666 16.6663H3.33268ZM9.99935 10.6872C10.0688 10.6872 10.1418 10.6766 10.2185 10.6555C10.2952 10.6344 10.368 10.6033 10.4368 10.5622L16.3327 6.87468C16.4438 6.80523 16.5271 6.71829 16.5827 6.61384C16.6382 6.5094 16.666 6.39495 16.666 6.27051C16.666 5.99273 16.548 5.7844 16.3119 5.64551C16.0757 5.50662 15.8327 5.51357 15.5827 5.66634L9.99935 9.16634L4.41602 5.66634C4.16602 5.51357 3.92296 5.51023 3.68685 5.65634C3.45074 5.80245 3.33268 6.00718 3.33268 6.27051C3.33268 6.4094 3.36046 6.53106 3.41602 6.63551C3.47157 6.73995 3.55491 6.81968 3.66602 6.87468L9.56185 10.5622C9.6313 10.6038 9.70435 10.6352 9.78102 10.6563C9.85768 10.6775 9.93046 10.6877 9.99935 10.6872Z" fill="#3153CA"/>
</g>
</svg>
