<svg width="10" height="10" viewBox="0 0 10 10" fill="none" xmlns="http://www.w3.org/2000/svg">
<g id="material-symbols:mail-rounded">
<path id="Vector" d="M1.66683 8.33342C1.43766 8.33342 1.24141 8.25175 1.07808 8.08842C0.914747 7.92508 0.833219 7.72897 0.833497 7.50008V2.50008C0.833497 2.27092 0.915163 2.07467 1.0785 1.91133C1.24183 1.748 1.43794 1.66647 1.66683 1.66675H8.3335C8.56266 1.66675 8.75891 1.74842 8.92225 1.91175C9.08558 2.07508 9.16711 2.27119 9.16683 2.50008V7.50008C9.16683 7.72925 9.08516 7.9255 8.92183 8.08883C8.7585 8.25217 8.56239 8.33369 8.3335 8.33342H1.66683ZM5.00016 5.34383C5.03489 5.34383 5.07141 5.33855 5.10975 5.328C5.14808 5.31744 5.18447 5.30189 5.21891 5.28133L8.16683 3.43758C8.22239 3.40286 8.26405 3.35939 8.29183 3.30717C8.31961 3.25494 8.3335 3.19772 8.3335 3.1355C8.3335 2.99661 8.27447 2.89244 8.15641 2.823C8.03836 2.75355 7.91683 2.75703 7.79183 2.83342L5.00016 4.58342L2.2085 2.83342C2.0835 2.75703 1.96197 2.75536 1.84391 2.82842C1.72586 2.90147 1.66683 3.00383 1.66683 3.1355C1.66683 3.20494 1.68072 3.26578 1.7085 3.318C1.73627 3.37022 1.77794 3.41008 1.8335 3.43758L4.78141 5.28133C4.81614 5.30217 4.85266 5.31786 4.891 5.32842C4.92933 5.33897 4.96572 5.34411 5.00016 5.34383Z" fill="#0F172A"/>
</g>
</svg>
