<svg width="10" height="10" viewBox="0 0 10 10" fill="none" xmlns="http://www.w3.org/2000/svg">
<g id="material-symbols:mail-rounded">
<path id="Vector" d="M1.66683 8.33317C1.43766 8.33317 1.24141 8.25151 1.07808 8.08817C0.914747 7.92484 0.833219 7.72873 0.833497 7.49984V2.49984C0.833497 2.27067 0.915163 2.07442 1.0785 1.91109C1.24183 1.74775 1.43794 1.66623 1.66683 1.6665H8.3335C8.56266 1.6665 8.75891 1.74817 8.92225 1.9115C9.08558 2.07484 9.16711 2.27095 9.16683 2.49984V7.49984C9.16683 7.729 9.08516 7.92525 8.92183 8.08859C8.7585 8.25192 8.56239 8.33345 8.3335 8.33317H1.66683ZM5.00016 5.34359C5.03489 5.34359 5.07141 5.33831 5.10975 5.32775C5.14808 5.3172 5.18447 5.30164 5.21891 5.28109L8.16683 3.43734C8.22239 3.40262 8.26405 3.35914 8.29183 3.30692C8.31961 3.2547 8.3335 3.19748 8.3335 3.13525C8.3335 2.99637 8.27447 2.8922 8.15641 2.82275C8.03836 2.75331 7.91683 2.75678 7.79183 2.83317L5.00016 4.58317L2.2085 2.83317C2.0835 2.75678 1.96197 2.75512 1.84391 2.82817C1.72586 2.90123 1.66683 3.00359 1.66683 3.13525C1.66683 3.2047 1.68072 3.26553 1.7085 3.31775C1.73627 3.36998 1.77794 3.40984 1.8335 3.43734L4.78141 5.28109C4.81614 5.30192 4.85266 5.31762 4.891 5.32817C4.92933 5.33873 4.96572 5.34387 5.00016 5.34359Z" fill="white"/>
</g>
</svg>
