<svg width="32" height="32" viewBox="0 0 32 32" fill="none" xmlns="http://www.w3.org/2000/svg">
<g id="ph:star-fill">
<path id="Vector" d="M2.68757 14.2977L8.32507 19.2177L6.63632 26.5427C6.54696 26.9257 6.57246 27.3264 6.70963 27.695C6.84681 28.0635 7.08957 28.3834 7.40756 28.6147C7.72556 28.846 8.10469 28.9784 8.49754 28.9954C8.89039 29.0124 9.27953 28.9132 9.61632 28.7102L16.0051 24.8352L22.3801 28.7102C22.7169 28.9132 23.106 29.0124 23.4989 28.9954C23.8917 28.9784 24.2708 28.846 24.5888 28.6147C24.9068 28.3834 25.1496 28.0635 25.2868 27.695C25.4239 27.3264 25.4494 26.9257 25.3601 26.5427L23.6738 19.2252L29.3126 14.2977C29.6108 14.0405 29.8265 13.701 29.9325 13.3217C30.0385 12.9424 30.0302 12.5402 29.9086 12.1656C29.787 11.791 29.5575 11.4607 29.2489 11.216C28.9403 10.9713 28.5663 10.8232 28.1738 10.7902L20.7413 10.1465L17.8401 3.22649C17.6886 2.86338 17.433 2.55322 17.1056 2.33506C16.7782 2.1169 16.3935 2.00049 16.0001 2.00049C15.6066 2.00049 15.222 2.1169 14.8946 2.33506C14.5671 2.55322 14.3116 2.86338 14.1601 3.22649L11.2501 10.1465L3.82007 10.7902C3.42761 10.8232 3.05363 10.9713 2.74502 11.216C2.43641 11.4607 2.2069 11.791 2.08529 12.1656C1.96367 12.5402 1.95536 12.9424 2.06139 13.3217C2.16742 13.701 2.38308 14.0405 2.68132 14.2977H2.68757Z" fill="white"/>
</g>
</svg>
