<svg width="31" height="30" viewBox="0 0 31 30" fill="none" xmlns="http://www.w3.org/2000/svg">
<g id="mingcute:whatsapp-fill" clip-path="url(#clip0_1_906)">
<g id="Group">
<path id="Vector" fill-rule="evenodd" clip-rule="evenodd" d="M15.8379 2.5C8.93414 2.5 3.33789 8.09625 3.33789 15C3.33789 17.3625 3.99414 19.575 5.13539 21.46L4.02039 25.25C3.95637 25.4676 3.95216 25.6984 4.0082 25.9182C4.06423 26.138 4.17845 26.3387 4.33884 26.4991C4.49923 26.6594 4.69987 26.7737 4.91966 26.8297C5.13946 26.8857 5.37029 26.8815 5.58789 26.8175L9.37789 25.7025C11.3262 26.8814 13.5607 27.5031 15.8379 27.5C22.7416 27.5 28.3379 21.9037 28.3379 15C28.3379 8.09625 22.7416 2.5 15.8379 2.5ZM13.0104 17.8287C15.5391 20.3562 17.9529 20.69 18.8054 20.7212C20.1016 20.7687 21.3641 19.7787 21.8554 18.63C21.9174 18.4871 21.9399 18.3302 21.9206 18.1756C21.9012 18.021 21.8407 17.8745 21.7454 17.7513C21.0604 16.8763 20.1341 16.2475 19.2291 15.6225C19.0402 15.4919 18.808 15.4394 18.5812 15.4763C18.3545 15.5131 18.1508 15.6363 18.0129 15.82L17.2629 16.9637C17.2235 17.0252 17.162 17.0693 17.0911 17.087C17.0203 17.1047 16.9453 17.0945 16.8816 17.0588C16.3729 16.7675 15.6316 16.2725 15.0991 15.74C14.5666 15.2075 14.1016 14.5 13.8404 14.0238C13.808 13.9632 13.7986 13.893 13.814 13.8262C13.8294 13.7593 13.8686 13.7003 13.9241 13.66L15.0791 12.8025C15.244 12.6592 15.3503 12.4602 15.378 12.2436C15.4057 12.0269 15.3527 11.8076 15.2291 11.6275C14.6691 10.8075 14.0166 9.765 13.0704 9.07375C12.9483 8.98525 12.8052 8.93007 12.6553 8.91364C12.5054 8.8972 12.3538 8.92007 12.2154 8.98C11.0654 9.4725 10.0704 10.735 10.1179 12.0337C10.1491 12.8862 10.4829 15.3 13.0104 17.8287Z" fill="#3153CA"/>
</g>
</g>
<defs>
<clipPath id="clip0_1_906">
<rect width="30" height="30" fill="white" transform="translate(0.837891)"/>
</clipPath>
</defs>
</svg>
