<svg width="10" height="10" viewBox="0 0 10 10" fill="none" xmlns="http://www.w3.org/2000/svg">
<g id="mingcute:whatsapp-fill" clip-path="url(#clip0_1_945)">
<g id="Group">
<path id="Vector" fill-rule="evenodd" clip-rule="evenodd" d="M5.00016 0.833496C2.69891 0.833496 0.833496 2.69891 0.833496 5.00016C0.833496 5.78766 1.05225 6.52516 1.43266 7.1535L1.061 8.41683C1.03966 8.48936 1.03825 8.56631 1.05693 8.63957C1.07561 8.71284 1.11368 8.77972 1.16715 8.83318C1.22061 8.88664 1.28749 8.92472 1.36075 8.94339C1.43402 8.96207 1.51096 8.96067 1.5835 8.93933L2.84683 8.56766C3.49628 8.96062 4.24109 9.16786 5.00016 9.16683C7.30141 9.16683 9.16683 7.30141 9.16683 5.00016C9.16683 2.69891 7.30141 0.833496 5.00016 0.833496ZM4.05766 5.94308C4.90058 6.78558 5.70516 6.89683 5.98933 6.90725C6.42141 6.92308 6.84225 6.59308 7.006 6.21016C7.02667 6.16253 7.03417 6.11022 7.02772 6.05869C7.02127 6.00716 7.00111 5.95832 6.96933 5.91725C6.741 5.62558 6.43225 5.416 6.13058 5.20766C6.0676 5.16411 5.99019 5.14664 5.91461 5.15892C5.83903 5.17119 5.77113 5.21225 5.72516 5.2735L5.47516 5.65475C5.46202 5.67524 5.44154 5.68994 5.41791 5.69583C5.39429 5.70171 5.3693 5.69835 5.34808 5.68641C5.1785 5.58933 4.93141 5.42433 4.75391 5.24683C4.57641 5.06933 4.42141 4.8335 4.33433 4.67475C4.32353 4.65458 4.32041 4.63118 4.32554 4.60888C4.33068 4.58659 4.34372 4.56691 4.36225 4.5535L4.74725 4.26766C4.80219 4.21989 4.83765 4.15358 4.84687 4.08136C4.85609 4.00913 4.83843 3.93604 4.79725 3.876C4.61058 3.60266 4.39308 3.25516 4.07766 3.02475C4.03696 2.99525 3.98927 2.97685 3.9393 2.97138C3.88933 2.9659 3.83879 2.97352 3.79266 2.9935C3.40933 3.15766 3.07766 3.5785 3.0935 4.01141C3.10391 4.29558 3.21516 5.10016 4.05766 5.94308Z" fill="white"/>
</g>
</g>
<defs>
<clipPath id="clip0_1_945">
<rect width="10" height="10" fill="white"/>
</clipPath>
</defs>
</svg>
