<svg width="10" height="10" viewBox="0 0 10 10" fill="none" xmlns="http://www.w3.org/2000/svg">
<g id="mingcute:whatsapp-fill" clip-path="url(#clip0_1_1736)">
<g id="Group">
<path id="Vector" fill-rule="evenodd" clip-rule="evenodd" d="M5.00016 0.833252C2.69891 0.833252 0.833496 2.69867 0.833496 4.99992C0.833496 5.78742 1.05225 6.52492 1.43266 7.15325L1.061 8.41659C1.03966 8.48912 1.03825 8.56606 1.05693 8.63933C1.07561 8.71259 1.11368 8.77947 1.16715 8.83294C1.22061 8.8864 1.28749 8.92447 1.36075 8.94315C1.43402 8.96183 1.51096 8.96043 1.5835 8.93909L2.84683 8.56742C3.49628 8.96037 4.24109 9.16762 5.00016 9.16659C7.30141 9.16659 9.16683 7.30117 9.16683 4.99992C9.16683 2.69867 7.30141 0.833252 5.00016 0.833252ZM4.05766 5.94284C4.90058 6.78534 5.70516 6.89659 5.98933 6.907C6.42141 6.92284 6.84225 6.59284 7.006 6.20992C7.02667 6.16228 7.03417 6.10997 7.02772 6.05845C7.02127 6.00692 7.00111 5.95807 6.96933 5.917C6.741 5.62534 6.43225 5.41575 6.13058 5.20742C6.0676 5.16387 5.99019 5.1464 5.91461 5.15867C5.83903 5.17095 5.77113 5.21201 5.72516 5.27325L5.47516 5.6545C5.46202 5.675 5.44154 5.68969 5.41791 5.69558C5.39429 5.70147 5.3693 5.6981 5.34808 5.68617C5.1785 5.58909 4.93141 5.42409 4.75391 5.24659C4.57641 5.06909 4.42141 4.83325 4.33433 4.6745C4.32353 4.65433 4.32041 4.63093 4.32554 4.60864C4.33068 4.58635 4.34372 4.56667 4.36225 4.55325L4.74725 4.26742C4.80219 4.21965 4.83765 4.15333 4.84687 4.08111C4.85609 4.00889 4.83843 3.9358 4.79725 3.87575C4.61058 3.60242 4.39308 3.25492 4.07766 3.0245C4.03696 2.995 3.98927 2.97661 3.9393 2.97113C3.88933 2.96565 3.83879 2.97328 3.79266 2.99325C3.40933 3.15742 3.07766 3.57825 3.0935 4.01117C3.10391 4.29534 3.21516 5.09992 4.05766 5.94284Z" fill="black"/>
</g>
</g>
<defs>
<clipPath id="clip0_1_1736">
<rect width="10" height="10" fill="white"/>
</clipPath>
</defs>
</svg>
