<svg width="32" height="32" viewBox="0 0 32 32" fill="none" xmlns="http://www.w3.org/2000/svg">
<g id="mingcute:whatsapp-fill" clip-path="url(#clip0_13_90)">
<g id="Group">
<path id="Vector" fill-rule="evenodd" clip-rule="evenodd" d="M15.8309 2.97925C8.63949 2.97925 2.81006 8.80868 2.81006 16.0001C2.81006 18.461 3.49365 20.7657 4.68245 22.7292L3.521 26.6772C3.45431 26.9038 3.44992 27.1443 3.50829 27.3732C3.56667 27.6022 3.68564 27.8112 3.85271 27.9783C4.01979 28.1453 4.22878 28.2643 4.45774 28.3227C4.68669 28.3811 4.92714 28.3767 5.15381 28.31L9.10172 27.1485C11.1313 28.3765 13.4588 29.0241 15.8309 29.0209C23.0223 29.0209 28.8517 23.1915 28.8517 16.0001C28.8517 8.80868 23.0223 2.97925 15.8309 2.97925ZM12.8856 18.9467C15.5197 21.5795 18.034 21.9272 18.922 21.9597C20.2723 22.0092 21.5874 20.9779 22.0991 19.7813C22.1637 19.6325 22.1872 19.469 22.167 19.308C22.1469 19.147 22.0838 18.9943 21.9845 18.866C21.271 17.9545 20.3062 17.2996 19.3634 16.6485C19.1666 16.5124 18.9247 16.4578 18.6885 16.4962C18.4523 16.5345 18.2402 16.6629 18.0965 16.8542L17.3153 18.0457C17.2742 18.1097 17.2102 18.1556 17.1364 18.174C17.0625 18.1924 16.9845 18.1819 16.9181 18.1446C16.3882 17.8412 15.616 17.3256 15.0614 16.7709C14.5067 16.2162 14.0223 15.4792 13.7502 14.9832C13.7164 14.9201 13.7067 14.847 13.7227 14.7773C13.7387 14.7077 13.7795 14.6462 13.8374 14.6042L15.0405 13.711C15.2122 13.5617 15.323 13.3545 15.3518 13.1288C15.3807 12.9031 15.3255 12.6747 15.1968 12.4871C14.6134 11.6329 13.9338 10.547 12.9481 9.8269C12.8209 9.73472 12.6719 9.67724 12.5157 9.66012C12.3595 9.643 12.2016 9.66682 12.0575 9.72925C10.8595 10.2423 9.82308 11.5574 9.87256 12.9102C9.90511 13.7983 10.2528 16.3126 12.8856 18.9467Z" fill="white"/>
</g>
</g>
<defs>
<clipPath id="clip0_13_90">
<rect width="31.25" height="31.25" fill="white" transform="translate(0.206055 0.375)"/>
</clipPath>
</defs>
</svg>
